<svg width="21" height="21" viewBox="0 0 21 21" fill="none" xmlns="http://www.w3.org/2000/svg">
<path d="M10.1211 0.548828C4.60709 0.548828 0.121094 5.03483 0.121094 10.5488C0.121094 16.0628 4.60709 20.5488 10.1211 20.5488C15.6351 20.5488 20.1211 16.0628 20.1211 10.5488C20.1211 5.03483 15.6351 0.548828 10.1211 0.548828ZM8.12209 14.9618L5.11655 11.9628C4.72579 11.5728 4.725 10.94 5.11478 10.5491C5.50481 10.158 6.13811 10.1573 6.52902 10.5475L8.12009 12.1358L12.7071 7.54883C13.0976 7.15836 13.7306 7.15836 14.1211 7.54883C14.5116 7.93929 14.5116 8.57236 14.1211 8.96283L8.12209 14.9618Z" fill="#2FAB73"/>
</svg>
