<svg width="14" height="10" viewBox="0 0 14 10" fill="none" xmlns="http://www.w3.org/2000/svg">
<path d="M5.44912 9.28019C5.31786 9.28045 5.18783 9.2548 5.0665 9.20469C4.94518 9.15458 4.83494 9.081 4.74212 8.98819L0.500123 4.74519C0.40455 4.65301 0.328291 4.54272 0.275798 4.42075C0.223304 4.29878 0.195627 4.16758 0.19438 4.03481C0.193133 3.90203 0.218342 3.77033 0.268536 3.6474C0.31873 3.52447 0.392904 3.41277 0.486729 3.31881C0.580555 3.22485 0.692153 3.15052 0.815012 3.10015C0.937872 3.04979 1.06953 3.02439 1.20231 3.02545C1.33509 3.02651 1.46633 3.054 1.58837 3.10632C1.71041 3.15864 1.82081 3.23474 1.91312 3.33019L5.44812 6.86519L11.8131 0.502187C12.0006 0.314547 12.255 0.209078 12.5203 0.208984C12.7855 0.208891 13.04 0.314179 13.2276 0.501687C13.4153 0.689195 13.5207 0.943564 13.5208 1.20883C13.5209 1.4741 13.4156 1.72855 13.2281 1.91619L6.15612 8.98819C6.0633 9.081 5.95307 9.15458 5.83174 9.20469C5.71041 9.2548 5.58039 9.28045 5.44912 9.28019Z" fill="#2FAB73"/>
</svg>
